<svg version="1.1" viewBox="0.0 0.0 191.33070866141733 276.48818897637796" id="style" fill="#ffffff" stroke="#000000" stroke-width="8.0" stroke-linecap="square" stroke-miterlimit="10" xmlns:xlink="http://www.w3.org/1999/xlink" xmlns="http://www.w3.org/2000/svg">
    <clipPath id="p.0"><path d="m0 0l191.3307 0l0 276.4882l-191.3307 0l0 -276.4882z" clip-rule="nonzero"/>
    </clipPath>
    <g clip-path="url(#p.0)">
        <path stroke-linejoin="round" stroke-linecap="butt" d="m21.350393 217.27177l0 0c0 -3.3717499 2.7333508 -6.1051025 6.10511 -6.1051025l136.4197 0c1.6191864 0 3.1720428 0.64320374 4.316971 1.788147c1.144928 1.144928 1.788147 2.6977844 1.788147 4.3169556l0 24.419708c0 3.3717499 -2.7333527 6.1051025 -6.105118 6.1051025l-136.4197 0c-3.3717594 0 -6.10511 -2.7333527 -6.10511 -6.1051025z" fill-rule="evenodd"/>
        <path stroke-linejoin="round" stroke-linecap="butt" d="m51.929134 91.80052l0.4461937 13.986877l0.22047424 17.09449l0.44356918 10.87664l-0.22047424 7.9921265l-0.66666794 8.435699l-1.7769012 9.102356l-2.4409447 9.325455l-3.9973755 9.102371l-5.771652 8.879257l-5.328087 7.9921265l-2.8845139 4.2178497l-2.4435692 4.6614227l-2.2178478 4.2178497l-1.1102352 4.4409485l2.6640415 -0.22309875l138.52756 0l1.7769165 1.3333282l-2.2204742 -6.438324l-5.994751 -9.325455l-5.1049957 -6.881897l-6.215225 -9.545929l-2.220459 -5.1049805l-2.2204742 -5.771652l-1.7769012 -7.1049957l-1.5538177 -7.7690277l-0.88713074 -8.215225l-0.22309875 -5.771652l-0.22047424 -7.9921265l0 -8.215218l0.66667175 -33.07612z" fill-rule="evenodd"/>
        <path stroke-linejoin="round" stroke-linecap="butt" d="m37.913387 69.64829l0.12335968 -6.125984l-0.7480316 -4.125984l-1.1259842 -4.4986877l-2.0 -5.375328l-2.2493458 -4.375328l-1.8766403 -3.4986877l-2.1233597 -3.5013123l-4.624672 -6.874014l-2.1259842 -3.2519684l-2.0 -3.0l-2.1259842 -3.2493439l-2.0 -3.8740158l5.2519684 -1.3753281l6.624672 -1.5013132l7.37533 -1.1233597l9.12336 -0.8766403l10.750656 -0.62467194l9.249344 0l2.5013084 4.750657l2.4986877 6.375328l1.7506561 6.0l2.1259842 -5.249344l4.375328 -8.876641l0.7480316 -2.2493439l38.375328 0l6.624672 15.249345l0.50131226 -3.4986877l1.4986877 -3.624672l4.125984 -8.876641l9.498688 -0.12335968l13.375336 0.8740158l8.876633 1.0l7.8740234 1.3753281l9.125977 2.4986887l-6.1259766 9.375328l-6.249344 9.375326l-3.1259918 5.0l-3.8740082 7.375328l-2.5013123 6.375328l-1.0 5.0l-0.3753357 5.125984l0 4.3727036z" fill-rule="evenodd"/>
    </g>
</svg>