<svg version="1.1" viewBox="0.0 0.0 197.03412073490813 320.36482939632543" stroke-linecap="square" id="style" fill="#ffffff" stroke="#000000" stroke-width="8.0" stroke-miterlimit="10" xmlns:xlink="http://www.w3.org/1999/xlink" xmlns="http://www.w3.org/2000/svg">

    <clipPath id="p.0">
        <path d="m0 0l197.03412 0l0 320.36484l-197.03412 0l0 -320.36484z" clip-rule="nonzero"/>
    </clipPath>
    <g clip-path="url(#p.0)">
        <path d="m24.202099 264.01062l0 0c0 -3.3717651 2.7333508 -6.1051025 6.10511 -6.1051025l136.41971 0c1.6191711 0 3.1720276 0.643219 4.3169556 1.788147c1.1449432 1.144928 1.788147 2.6977844 1.788147 4.3169556l0 24.419708c0 3.3717651 -2.7333527 6.1051025 -6.1051025 6.1051025l-136.41971 0c-3.3717594 0 -6.10511 -2.7333374 -6.10511 -6.1051025z" fill-rule="evenodd"/>
        <path stroke-linejoin="round" stroke-linecap="butt" d="m24.202099 264.01062l0 0c0 -3.3717651 2.7333508 -6.1051025 6.10511 -6.1051025l136.41971 0c1.6191711 0 3.1720276 0.643219 4.3169556 1.788147c1.1449432 1.144928 1.788147 2.6977844 1.788147 4.3169556l0 24.419708c0 3.3717651 -2.7333527 6.1051025 -6.1051025 6.1051025l-136.41971 0c-3.3717594 0 -6.10511 -2.7333374 -6.10511 -6.1051025z" fill-rule="evenodd"/>
        <path d="m65.20604 64.69292l0 0c0 -20.056202 14.115364 -36.314964 31.527557 -36.314964l0 0c8.361626 0 16.380783 3.8260307 22.29335 10.636406c5.912567 6.810375 9.234207 16.04723 9.234207 25.678558l0 0c0 20.056198 -14.115372 36.314957 -31.527557 36.314957l0 0c-17.412193 0 -31.527557 -16.258759 -31.527557 -36.314957z" fill-rule="evenodd"/>
        <path stroke-linejoin="round" stroke-linecap="butt" d="m65.20604 64.69292l0 0c0 -20.056202 14.115364 -36.314964 31.527557 -36.314964l0 0c8.361626 0 16.380783 3.8260307 22.29335 10.636406c5.912567 6.810375 9.234207 16.04723 9.234207 25.678558l0 0c0 20.056198 -14.115372 36.314957 -31.527557 36.314957l0 0c-17.412193 0 -31.527557 -16.258759 -31.527557 -36.314957z" fill-rule="evenodd"/>
        <path d="m48.892387 255.2021l31.498688 -64.74803l2.5013123 -8.251968l2.0 -9.0l1.7506561 -12.0l0 -12.249344l-1.2519684 -6.750656l-1.7480316 -5.0l-2.7506561 -3.2493439l-4.249344 -4.0l-7.0 -4.750656l-1.7506561 -2.0l62.750664 -0.24934387l-4.7506638 2.5013123l-6.5013123 5.0l-5.4986877 5.249344l-1.7506561 4.4986877l-1.4986877 4.2519684l-0.25196838 5.4986877l-0.24934387 6.5013123l0.24934387 10.249344l1.7506561 10.0l4.249344 13.498688l4.750656 10.750656l27.000008 54.501312z" fill-rule="evenodd"/>
        <path stroke-linejoin="round" stroke-linecap="butt" d="m48.892387 255.2021l31.498688 -64.74803l2.5013123 -8.251968l2.0 -9.0l1.7506561 -12.0l0 -12.249344l-1.2519684 -6.750656l-1.7480316 -5.0l-2.7506561 -3.2493439l-4.249344 -4.0l-7.0 -4.750656l-1.7506561 -2.0l62.750664 -0.24934387l-4.7506638 2.5013123l-6.5013123 5.0l-5.4986877 5.249344l-1.7506561 4.4986877l-1.4986877 4.2519684l-0.25196838 5.4986877l-0.24934387 6.5013123l0.24934387 10.249344l1.7506561 10.0l4.249344 13.498688l4.750656 10.750656l27.000008 54.501312z" fill-rule="evenodd"/>
    </g>
</svg>