<svg version="1.1" viewBox="0.0 0.0 189.5721784776903 259.23359580052494" id="style" fill="#ffffff" stroke="#000000" stroke-width="8.0" stroke-linecap="square" stroke-miterlimit="10" xmlns:xlink="http://www.w3.org/1999/xlink" xmlns="http://www.w3.org/2000/svg">
    <clipPath id="p.0">
        <path d="m0 0l189.57217 0l0 259.23358l-189.57217 0l0 -259.23358z" clip-rule="nonzero"/>
    </clipPath>
    <g clip-path="url(#p.0)">
        <path stroke-linejoin="round" stroke-linecap="butt" d="m20.471128 203.82164l0 0c0 -3.3717499 2.7333508 -6.1051025 6.1051083 -6.1051025l136.41971 0c1.6191711 0 3.1720276 0.643219 4.316971 1.788147c1.144928 1.144928 1.7881317 2.6977844 1.7881317 4.3169556l0 24.419708c0 3.3717651 -2.7333374 6.1051025 -6.1051025 6.1051025l-136.41971 0c-3.3717575 0 -6.1051083 -2.7333374 -6.1051083 -6.1051025z" fill-rule="evenodd"/>
        <path stroke-linejoin="round" stroke-linecap="butt" d="m154.55151 190.30649l-60.37764 -84.380135l2.5899582 -2.4478455l7.706558 1.5412064l38.16877 10.9917145l7.223831 8.124161l6.3769073 -3.328827l1.1861115 -5.288582l4.9840546 0.6829071l5.4905396 -6.661545l-0.19894409 -15.7460785l-23.131668 -25.69352l-4.072891 -5.2218437l-3.7792358 -13.585255l-7.0259247 -6.595501l-9.101456 -4.6367455l-6.1544113 -3.0081863l0.3116455 -8.876005l0.52519226 -14.958212l-11.552856 1.1144667l-8.635498 3.504324l-7.920212 4.543994l-3.776062 7.736433l-7.0833664 2.0373516l-7.089142 2.2862587l-8.16264 4.2833366l-7.7579765 7.088852l-6.865616 10.166672l-6.9486694 12.447773l-2.3287125 16.419327l-1.6025352 24.314453l-1.0812111 16.463303l-0.28286362 15.221863l-1.089138 9.607941l-1.4334011 19.497253l1.4563007 8.428101l3.8305588 4.9581757l6.295906 6.05954l6.1720924 2.504593l15.350906 4.854019l18.9132 3.2057953l22.029495 0.014160156l23.265015 0.5679321z" fill-rule="evenodd"/>
    </g>
</svg>