<svg version="1.1" viewBox="0.0 0.0 188.25459317585302 293.1653543307087" id="style" fill="#ffffff" stroke="#000000" stroke-width="8.0" stroke-linecap="square" stroke-miterlimit="10" xmlns:xlink="http://www.w3.org/1999/xlink" xmlns="http://www.w3.org/2000/svg">
    <clipPath id="p.0">
        <path d="m0 0l188.2546 0l0 293.16534l-188.2546 0l0 -293.16534z" clip-rule="nonzero"/>
    </clipPath>
    <g clip-path="url(#p.0)">
        <path fill="#ffffff" d="m52.67323 82.97769l-0.13910675 -5.299217l-1.671917 -7.530182l-3.3464584 -7.530182l-5.719158 -9.482941l-7.5301857 -11.435696l-4.461941 -7.1128616l4.6010475 -1.2545929l9.204727 -0.8372688l6.692913 1.1154861l3.2073479 2.2309685l3.0682411 5.9973755l4.4619446 13.388454l3.2073479 -16.874016l1.8136444 -4.603676l6.692917 -1.1154861l1.3963242 0.28084183l-0.280838 -9.0656185l2.650917 -7.9501305l3.2073517 -4.4619427l3.4855652 -2.6482944l3.4881897 -1.9527555l4.041992 -0.2782154l4.1837234 1.1154857l4.183731 3.2073488l3.0682373 3.9028873l2.370079 4.8818893l0.83727264 4.6010513l0.2782135 4.8818893l0.14173126 3.4855633l5.018379 -0.13910675l2.7900238 1.1154861l2.0918655 5.719158l1.9527512 10.178478l1.2545929 5.43832l3.4855652 -11.992126l3.6272964 -7.391075l2.6483002 -2.0918617l4.0446167 -1.3937035l5.438324 0l11.994751 1.5328102l-2.5118103 4.1837273l-3.0682526 4.7427826l-3.7637787 5.43832l-3.7664032 5.994751l-5.577423 8.648293l-2.6509247 7.391075l-1.9501266 6.55381l-0.14173126 6.6929092z" fill-rule="evenodd"/>
        <path stroke-linejoin="round" stroke-linecap="butt" d="m19.811024 239.66286l0 0c0 -3.3717651 2.7333508 -6.105118 6.1051083 -6.105118l136.4197 0c1.6191864 0 3.1720428 0.643219 4.316971 1.788147c1.144928 1.144928 1.788147 2.6977844 1.788147 4.316971l0 24.419693c0 3.3717651 -2.7333527 6.1051025 -6.105118 6.1051025l-136.4197 0c-3.3717575 0 -6.1051083 -2.7333374 -6.1051083 -6.1051025z" fill-rule="evenodd"/>
        <path stroke-linejoin="round" stroke-linecap="butt" d="m56.636482 83.25459c0 -18.83229 -16.176094 -34.016926 -24.608925 -50.855644" fill-rule="evenodd"/>
        <path stroke-linejoin="round" stroke-linecap="butt" d="m32.028946 35.12992c3.870636 0 17.759533 -3.5546799 23.223808 0c5.4642715 3.5546799 7.9682007 17.773403 9.561844 21.328083" fill-rule="evenodd"/>
        <path stroke-linejoin="round" stroke-linecap="butt" d="m82.86092 35.12992c-2.1307755 0 -9.776596 -3.5546799 -12.784668 0c-3.008072 3.5546799 -4.3864822 17.773403 -5.2637787 21.328083" fill-rule="evenodd"/>
        <path stroke-linejoin="round" stroke-linecap="butt" d="m69.26772 35.12992c2.1307755 0 9.776588 -3.5546799 12.784668 0c3.008072 3.5546799 4.3864822 17.773403 5.2637787 21.328083" fill-rule="evenodd"/>
        <path stroke-linejoin="round" stroke-linecap="butt" d="m130.62326 82.874016c0 -18.83229 16.176086 -34.016926 24.608917 -50.855644" fill-rule="evenodd"/>
        <path stroke-linejoin="round" stroke-linecap="butt" d="m155.23079 34.749344c-3.870636 0 -17.759537 -3.5546799 -23.2238 0c-5.464279 3.5546799 -7.9682083 17.773403 -9.5618515 21.328083" fill-rule="evenodd"/>
        <path stroke-linejoin="round" stroke-linecap="butt" d="m104.39881 34.749344c2.130783 0 9.776596 -3.5546799 12.784668 0c3.0080795 3.5546799 4.3864822 17.773403 5.2637787 21.328083" fill-rule="evenodd"/>
        <path stroke-linejoin="round" stroke-linecap="butt" d="m117.99202 34.749344c-2.130783 0 -9.776596 -3.5546799 -12.784668 0c-3.0080795 3.5546799 -4.3864822 17.773403 -5.2637787 21.328083" fill-rule="evenodd"/>
        <path stroke-width="0.0" stroke-linejoin="round" stroke-linecap="butt" d="m61.07874 50.61286l8.188976 0l0 6.551182l-8.188976 0z" fill-rule="evenodd"/>
        <path stroke-width="0.0" stroke-linejoin="round" stroke-linecap="butt" d="m118.18372 50.61286l8.18898 0l0 6.551182l-8.18898 0z" fill-rule="evenodd"/>
        <path stroke-linejoin="round" stroke-linecap="butt" d="m77.847626 31.606045l0 0c-0.7043381 -8.073095 2.0771942 -15.975812 7.170891 -20.37347c5.093689 -4.3976583 11.612289 -4.524246 16.80516 -0.32634735c5.1928787 4.197898 8.155502 11.989066 7.6377487 20.085896" fill-rule="evenodd"/>
        <path stroke-linejoin="round" stroke-linecap="butt" d="m44.733597 234.18898l31.498688 -64.74803l2.5013123 -8.251968l2.0 -9.0l1.7506561 -12.0l0 -12.249344l-1.2519684 -6.750656l-1.7480316 -5.0l-2.7506561 -3.2493439l-4.249344 -4.0l-7.0 -4.750656l-1.7506561 -2.0l62.750656 -0.24934387l-4.750656 2.5013123l-6.5013123 5.0l-5.4986877 5.249344l-1.7506561 4.4986877l-1.4986877 4.2519684l-0.25196838 5.4986877l-0.24934387 6.5013123l0.24934387 10.249344l1.7506561 10.0l4.249344 13.498688l4.750656 10.750656l27.0 54.501312z" fill-rule="evenodd"/>
    </g>
</svg>