<svg version="1.1" viewBox="0.0 0.0 188.6981627296588 250.16010498687663" id="style" fill="#ffffff" stroke="#000000" stroke-width="8.0" stroke-linecap="square" stroke-miterlimit="10" xmlns:xlink="http://www.w3.org/1999/xlink" xmlns="http://www.w3.org/2000/svg">
    <clipPath id="p.0">
        <path d="m0 0l188.69817 0l0 250.16011l-188.69817 0l0 -250.16011z" clip-rule="nonzero"/>
    </clipPath>
    <g clip-path="url(#p.0)">
        <path stroke-linejoin="round" stroke-linecap="butt" d="m20.032808 192.7101l0 0c0 -3.3717651 2.7333508 -6.105118 6.1051083 -6.105118l136.41971 0c1.6191864 0 3.1720428 0.643219 4.316971 1.788147c1.144928 1.144928 1.788147 2.6977997 1.788147 4.316971l0 24.419708c0 3.3717499 -2.7333527 6.1051025 -6.105118 6.1051025l-136.41971 0c-3.3717575 0 -6.1051083 -2.7333527 -6.1051083 -6.1051025z" fill-rule="evenodd"/>
        <path stroke-linejoin="round" stroke-linecap="butt" d="m55.59186 49.245407l0 0c0 -21.3956 17.351612 -38.740158 38.75591 -38.740158l0 0c10.278702 0 20.136421 4.081541 27.404564 11.346729c7.2681427 7.26519 11.351334 17.1189 11.351334 27.393429l0 0c0 21.3956 -17.3516 38.740158 -38.755898 38.740158l0 0c-21.404297 0 -38.75591 -17.344559 -38.75591 -38.740158z" fill-rule="evenodd"/>
        <path stroke-linejoin="round" stroke-linecap="butt" d="m69.18898 111.65354l3.1102295 6.6614227l2.5511856 6.4383163l2.3307037 7.8792725l0.66667175 4.107605l0.556427 6.328079l-0.77952576 6.658798l-1.3307114 4.2178497l-1.6640396 2.9973755l-1.8871384 2.664032l-2.443573 3.1076202l-2.8845139 2.9973755l-4.551178 3.7742767l-4.2178497 2.9973755l-4.7742767 2.8871307l-4.884514 2.5511932l-5.661419 2.664032l-16.538057 6.1049957l133.53543 0l-11.43306 -3.8845215l-9.102371 -3.7742767l-9.212601 -4.6614227l-7.2152176 -4.9947357l-4.6640396 -3.9973755l-5.215225 -5.9921265l-1.7769012 -2.7769165l-1.7769089 -3.7716522l-1.5538025 -5.2178497l-0.33333588 -6.4383087l1.0 -6.3280945l1.2204742 -5.4383087l2.2204742 -6.881897l4.661415 -10.766403z" fill-rule="evenodd"/>
    </g>
</svg>