<svg version="1.1" viewBox="0.0 0.0 193.52230971128608 314.2230971128609" id="style" fill="#ffffff" stroke="#000000" stroke-width="8.0" stroke-linecap="square" stroke-miterlimit="10" xmlns:xlink="http://www.w3.org/1999/xlink" xmlns="http://www.w3.org/2000/svg">
    <clipPath id="p.0"><path d="m0 0l193.52231 0l0 314.22308l-193.52231 0l0 -314.22308z" clip-rule="nonzero"/></clipPath>
    <g clip-path="url(#p.0)">
        <path stroke-linejoin="round" stroke-linecap="butt" d="m22.446194 257.25604l0 0c0 -3.3717804 2.7333508 -6.105118 6.10511 -6.105118l136.41971 0c1.6191711 0 3.1720276 0.64320374 4.3169556 1.7881317c1.1449432 1.1449432 1.788147 2.6977997 1.788147 4.316986l0 24.419678c0 3.3717651 -2.7333527 6.105133 -6.1051025 6.105133l-136.41971 0c-3.3717594 0 -6.10511 -2.733368 -6.10511 -6.105133z" fill-rule="evenodd"/>
        <path stroke-linejoin="round" stroke-linecap="butt" d="m140.84514 47.559055l-22.719154 53.29134l-42.93963 0l-22.719166 -53.29134z" fill-rule="evenodd"/>
        <path stroke-linejoin="round" stroke-linecap="butt" d="m47.50525 251.54724l31.498688 -64.74803l2.5013123 -8.251968l2.0 -9.0l1.7506561 -12.0l0 -12.249344l-1.2519684 -6.750656l-1.7480316 -5.0l-2.7506561 -3.2493439l-4.249344 -4.0l-7.0 -4.750656l-1.7506561 -2.0l62.750656 -0.24934387l-4.750656 2.5013123l-6.5013123 5.0l-5.4986877 5.249344l-1.7506561 4.4986877l-1.4986877 4.2519684l-0.25196838 5.4986877l-0.24934387 6.5013123l0.24934387 10.249344l1.7506561 10.0l4.249344 13.498688l4.750656 10.750656l27.0 54.501312z" fill-rule="evenodd"/>
    </g>
</svg>