<svg version="1.1" viewBox="0.0 0.0 188.25459317585302 293.1653543307087" id="style" fill="#ffffff" stroke="#000000" stroke-width="8.0" stroke-linecap="square" stroke-miterlimit="10" xmlns:xlink="http://www.w3.org/1999/xlink" xmlns="http://www.w3.org/2000/svg">
    <clipPath id="p.0">
        <path d="m0 0l188.2546 0l0 293.16534l-188.2546 0l0 -293.16534z" clip-rule="nonzero"/>
    </clipPath>
    <g clip-path="url(#p.0)">
        <path stroke-linejoin="round" stroke-linecap="butt" d="m8.0 270.19684l172.25197 0l0 16.409454l-172.25197 0z" fill-rule="evenodd"/>
        <path stroke-linejoin="round" stroke-linecap="butt" d="m48.3937 87.03549l0 0c0 -1.661232 1.3466988 -3.0079346 3.0079346 -3.0079346l85.44869 0c0.79776 0 1.5628357 0.3169098 2.1269379 0.88100433c0.5641022 0.56409454 0.8809967 1.3291779 0.8809967 2.1269302l0 12.03138c0 1.661232 -1.346695 3.0079346 -3.0079346 3.0079346l-85.44869 0l0 0c-1.6612358 0 -3.0079346 -1.3467026 -3.0079346 -3.0079346z" fill-rule="evenodd"/>
    </g>
</svg>