<svg version="1.1" viewBox="0.0 0.0 197.03412073490813 320.36482939632543" id="style" fill="#ffffff" stroke="#000000" stroke-width="8.0" stroke-linecap="square" stroke-miterlimit="10" xmlns:xlink="http://www.w3.org/1999/xlink" xmlns="http://www.w3.org/2000/svg">
    <clipPath id="p.0">
        <path d="m0 0l197.03412 0l0 320.36484l-197.03412 0l0 -320.36484z" clip-rule="nonzero"/></clipPath>
    <g clip-path="url(#p.0)">
        <path stroke-linejoin="round" stroke-linecap="butt" d="m12.391076 294.54462l172.25197 0l0 16.409454l-172.25197 0z" fill-rule="evenodd"/>
        <path stroke-linejoin="round" stroke-linecap="butt" d="m53.18504 107.913445l0 0c0 -1.661232 1.3466988 -3.0079346 3.0079346 -3.0079346l85.4487 0c0.79774475 0 1.5628204 0.3169098 2.1269226 0.88100433c0.5641022 0.56409454 0.88101196 1.3291779 0.88101196 2.1269302l0 12.03138c0 1.661232 -1.3467102 3.0079346 -3.0079346 3.0079346l-85.4487 0l0 0c-1.6612358 0 -3.0079346 -1.3467026 -3.0079346 -3.0079346z" fill-rule="evenodd"/>
    </g></svg>